<svg xmlns="http://www.w3.org/2000/svg"><symbol id="brachiosaurus" viewBox="0 0 252 252"><path d="M57.6 164.5a36.9 36.9 0 0 0-7.6.8v.2c0 .3.3.6.8.9a12 12 0 0 0 2 1.1l2.6.9 2.8.9 2.4.6 1.4.2h2l2.5-.4 2.4-.9a4.7 4.7 0 0 0 1.7-1.4 25.6 25.6 0 0 0-6.4-2.2 29 29 0 0 0-6.6-.7z"/><path d="M125.8 0a125.9 125.9 0 1 0 125.9 125.8A125.8 125.8 0 0 0 125.8 0zm82.1 69.4v.3a8.2 8.2 0 0 1-.1 1.4l-.3 2.1c-.2.7-.2 1.4-.4 2.1s-.2 1.1-.2 1.3a15.1 15.1 0 0 0-.9 1.8l-.6 2-.6 1.9a15.9 15.9 0 0 1-.7 2c-.6 1.1-1.1 2.1-1.7 3a21.1 21.1 0 0 0-1.6 3l-19.7 27.4-.2.6-.3.3-.3.2-.4.5-1.7 2.3-2 2.8-2.2 3.2a27.9 27.9 0 0 0-1.9 3.3 15.3 15.3 0 0 0-1.4 2.9 5.6 5.6 0 0 0-.5 2.3c0 .3-.3.5-.2.7s.2.4.2.7c-.2.1-.3.2-.3.4s.1.4.3.4v10.1a2.2 2.2 0 0 1-.3 1c-.2.3-.2.7-.4 1.1a6.7 6.7 0 0 1-.6 1.2c-.1.4-.4.8-.4 1.1v1.7a.5.5 0 0 1 0 .4c-.2.2-.2.5-.4.8s-.6.5-.7.8l-.5.4v.4s.7.2.8.4.8.3.8.4v2.8a21.4 21.4 0 0 1-.6 3.5c-.2 1.1-.5 2.3-.8 3.4l-.6 3.5a20.7 20.7 0 0 0-.3 3.5c0 2.1 0 4.2.2 6.2a59.7 59.7 0 0 0 1.1 6.1 27.8 27.8 0 0 0 2.1 5.7 22.2 22.2 0 0 0 3.4 5.2l-1.2.8-1.7.7-1.7.4a3.5 3.5 0 0 1-1.4.1h-.5l-1-.2-1.2-.3-1-.2h-.7l-.7-.3c-.3-.2-.5-.3-.6-.5a1.6 1.6 0 0 1-.4-.7 17.9 17.9 0 0 0 .1-4c0-1.4-.1-2.8-.2-4.2s-.4-2.9-.5-4.3l-.6-4-.2-.6c-.1-.4-.1-.6-.2-.6s.1-2.3.1-3.6 0-2.7-.1-4a25.7 25.7 0 0 0-.6-4 12.8 12.8 0 0 0-1.4-3.4 3.7 3.7 0 0 0-1.4 1.8 27.6 27.6 0 0 0-.8 2.7c-.2 1-.2 1.9-.4 2.9s-1 1.7-1 2.3v1.5a16.2 16.2 0 0 1 0 2.2v3.8c0 2.8-.2 5.5-.1 8.2a75.4 75.4 0 0 0 .6 8.1c0 .1.1.2.4.3l.8.6.8.7c.2.3.3.4.3.6s-.2.5-.8.8l-1.8.9-2 .8-1.3.4h-.1l-4.7-2.5a.5.5 0 0 1-.3-.5v-.6a14.5 14.5 0 0 1 .1-3 28.1 28.1 0 0 0 .1-3c0-1.2-.2-2.5-.3-3.7l-.6-3.7-.6-3.7a24.7 24.7 0 0 1-.3-3.9 32.5 32.5 0 0 1 .2-3.3 24.8 24.8 0 0 1 .3-2.7c.2-.9.3-1.8.5-2.8s.4-2 .7-3.2a2.3 2.3 0 0 0-.1-.7c0-.3-.1-.5-.1-.7l-1.8.2-1.9.5-1.9.7-1.9.5-1.3.2h-2l-1.1-.2h-7a44.3 44.3 0 0 0-5.2-.2h-2.4a3.8 3.8 0 0 0-2.4.9c.1 1.7.1 3.4.1 5.1s-.1 3.4-.2 5.1l-.3 5c0 1.7-.1 3.4-.1 5.1v5.1c0 .5.6 1.1 1.1 1.6s.9 1.2 1.4 1.7l1.2 1.8a3.4 3.4 0 0 1 .5 1.7v.3a7.9 7.9 0 0 1-4 .4c0 .5 0 .7-.3.8h-2.7l-2.2-.2a5.1 5.1 0 0 1-1.8-.9 2.2 2.2 0 0 1-.8-1.8 6.9 6.9 0 0 1 .2-1.3l.3-1.3.3-1.3a5.7 5.7 0 0 0 .1-1.3c0-1.3-.1-2.6-.2-3.8s-.4-2.4-.7-3.6-.5-2.6-.8-3.8a27.8 27.8 0 0 1-.7-3.9h-.4c-.3 0-.4.7-.6.9a2.5 2.5 0 0 1-.4.7l-.3.5-1.5 2.3-1.4 2.2a12.8 12.8 0 0 0-1.1 2.4 8 8 0 0 0-.4 2.7 4.5 4.5 0 0 0 .3 1.6 10.1 10.1 0 0 0 .7 1.5l.7 1.1c.3.3.4.5.4.6s-.2.5-.5.7a2.3 2.3 0 0 1-1 .5l-1.3.3h-2.5l-1.8-.2a1.5 1.5 0 0 1-1-.4 2.7 2.7 0 0 1-.7-.8 5 5 0 0 1-.5-1.6l-.6-1.6a8.8 8.8 0 0 1-.2-1.7 2.7 2.7 0 0 1 .4-1.4l.9-1.6 1.1-1.6.8-1.4 2.4-5.9 2.4-5.8.5-.7.5-.7.5-.8a1.9 1.9 0 0 0 .1-.8q0-.6-.3-.6h-1.3l-8.9 2.4a2.7 2.7 0 0 1-1.3.5l-1.7.4a7.6 7.6 0 0 0-1.6.6 1.2 1.2 0 0 0-.7 1 1.2 1.2 0 0 0 .3.9l.6.7.9.5.7.6-.4.5-1.3-.9-1.3-.8-1.5-.6a3.9 3.9 0 0 0-1.5-.2 12.4 12.4 0 0 0-3.8.5l-3.9 1.1-4.1 1.1a14 14 0 0 1-4.1.5 18.5 18.5 0 0 1-3.5-.4 35.8 35.8 0 0 1-4.8-1.1 56 56 0 0 1-5.4-1.7 44.9 44.9 0 0 1-4.9-2.2 18.6 18.6 0 0 1-3.7-2.7 4.4 4.4 0 0 1-1.4-2.9 4.9 4.9 0 0 1 1.1-3.3 7.1 7.1 0 0 1 2.8-1.6 12.6 12.6 0 0 1 3.4-.1 31.1 31.1 0 0 1 3.3.3h4a1.9 1.9 0 0 1 1.2-.3 19.5 19.5 0 0 1 2.3.2l2.6.3 1.9.3a5.9 5.9 0 0 1 1.9.5l1.8.8 1.8.8a6.4 6.4 0 0 0 2 .3 8.4 8.4 0 0 0 3.9-1 25.7 25.7 0 0 0 4.1-2.6 40.8 40.8 0 0 0 3.9-3.1l3.2-2.6 1.8-1.3a11.8 11.8 0 0 0 1.9-1.1 10.4 10.4 0 0 0 1.7-1.2 12.9 12.9 0 0 0 1.5-1.7c.9-1.4 1.8-2.9 2.6-4.4a21.3 21.3 0 0 1 2.6-4.4l1.3-1.3 1.6-1 1.6-.9 1.6-.9 3.5-2.6 3.5-2.9 3.3-3 3.4-2.8a20 20 0 0 1 3.7-2.2l3.9-1.8 2.5-1.3 2.4-1.3 2.6-1.1a11.2 11.2 0 0 1 2.6-.8l22.2-3.2a11.8 11.8 0 0 0 3.5-1.1 21 21 0 0 0 3.3-2.2 27 27 0 0 0 3.1-2.8l2.9-3.3c1-1 1.8-2.1 2.7-3.1s1.6-2 2.3-2.8l7.6-8.9.3-.3.6-.5c.2-.2.3-.4.5-.5l.2-.3 2.1-3.2c0-.1.1-.1.2-.2l.4-.2.4-.3h.2l.4-.4.4-.4a13.6 13.6 0 0 1 1.2-1.7l1.3-2a21.4 21.4 0 0 0 1.3-1.9 18.1 18.1 0 0 0 1-1.7 16.7 16.7 0 0 0 .8-2 17.2 17.2 0 0 0 .7-2.1c.3-.7.5-1.5.8-2.2s1-1.5 1-2.2v-6a5.3 5.3 0 0 0-1.1-3.1 12.8 12.8 0 0 0-2.6-2.6 17.4 17.4 0 0 0-3.3-1.8 10.4 10.4 0 0 0-3.2-.6 27.8 27.8 0 0 0-5.8.6 11.7 11.7 0 0 0-5 2.7 6.4 6.4 0 0 0-1.5 1.4l-1.6 1.8c-.5.7-1.1 1.3-1.7 2a15.3 15.3 0 0 1-1.8 1.8 6.8 6.8 0 0 1-1.8 1.3 3.1 3.1 0 0 1-1.8.5 1.5 1.5 0 0 1-1.1-.4 1.8 1.8 0 0 1-.5-1.2v-.4a1.3 1.3 0 0 1 .1-.5c0-.2.1-.5.1-.7s.1-.5.2-.8a1 1 0 0 1 .1-.4 4.3 4.3 0 0 0-.3-1.7l-.6-1.3a6.7 6.7 0 0 0-.6-1.2 5.1 5.1 0 0 1-.2-1.3c.4 0 .7 0 .8-.2l.5-.6a3 3 0 0 1 .4-.8l.8-.6h2.8a1.3 1.3 0 0 0 .9-.4l.7-.7h.4c.1 0 .2.2.3.4s.1.3.1.4a.8.8 0 0 1 .4-.4l.7-.4 1-.6 1.4-.8 1.3-.8 1.1-.6.6-.4a13.5 13.5 0 0 1 2.1-1.3 4.9 4.9 0 0 1 1.7-.6l1.9-.2h6.4a3.9 3.9 0 0 0 1.5.6l1.5.3 1.5.3 1.5.5a11.9 11.9 0 0 1 4.5 3 15.7 15.7 0 0 1 3.2 4.1 21.1 21.1 0 0 1 1.7 5 24.7 24.7 0 0 1 .5 5.4v2.3z"/></symbol><symbol id="velociraptor" viewBox="0 0 252 252"><path d="M126 0a126 126 0 1 0 126 126A126 126 0 0 0 126 0zm109 115h-7.3a91 91 0 0 1-9.1-.4l-9-1-9-.9c-3-.3-6.1-.5-9.1-.5a126.9 126.9 0 0 0-16.2 1 73.9 73.9 0 0 0-15.6 3.7l-30.3 10.9a2.4 2.4 0 0 0-1.2 1.5 22.9 22.9 0 0 0-.8 2.8l-.6 2.8a8.5 8.5 0 0 1-.6 1.9 2.7 2.7 0 0 0 1.3 1.3l2.4 1.2 2.9 1.2a11.5 11.5 0 0 1 2.7 1.4 7.6 7.6 0 0 1 2.1 1.8 3.6 3.6 0 0 1 .8 2.5 1.3 1.3 0 0 1-.5 1.2 3.6 3.6 0 0 1-1.2.8l-1.6.8-1.5.8-1.3 1a2.4 2.4 0 0 0-.4 1.5 3.7 3.7 0 0 0 .7 2.5 10.8 10.8 0 0 0 2 1.6l2.3 1.3a6.8 6.8 0 0 1 2.1 1.7 13.2 13.2 0 0 1 2 3.4 16.3 16.3 0 0 1 1.3 3.7c.3 1.2.6 2.5.8 3.8s.1 2.6.2 3.9l1.3 1.3v7.1h.9l1 .2 1 .2.5.2a3.2 3.2 0 0 1 .1.8 3.8 3.8 0 0 1-.1 1 5.6 5.6 0 0 1-.4 1.2 2.1 2.1 0 0 1-.6 1c-.2.3-.5.3-.9.3H141c-.2 0-.5-.6-1-.9l-1.5-.8-1.5-.8c-.5-.3-.9-.8-1.2-.8h-6.1a5 5 0 0 1 .7-3 3.9 3.9 0 0 1 1.6-1.5l2.1-.6 2.1-.4a3.4 3.4 0 0 0 1.6-.6 1.3 1.3 0 0 0 .7-1.3.8.8 0 0 0-.1-.4v-.4l-.8-1.7c-.4-.8-.8-1.6-1.3-2.4a20.7 20.7 0 0 0-1.5-2.5 15.8 15.8 0 0 0-1.5-1.8l-1.3-.8-1.9-.9-1.7-1a3.3 3.3 0 0 1-1-1.1c-.3-.8-.6-1.8-.9-2.9a15.1 15.1 0 0 0-1.1-3.2 7.8 7.8 0 0 0-1.7-2.6 3.7 3.7 0 0 0-2.8-1 20.6 20.6 0 0 0-6 .8 23.2 23.2 0 0 0-5.7 2.2 23.8 23.8 0 0 0-4.9 3.4 24.4 24.4 0 0 0-3.9 4.6h-.6a.5.5 0 0 1-.2-.4c-.1-.2-.1-.4-.2-.6a1.4 1.4 0 0 0-.2-.6.4.4 0 0 0-.1-.3h-.3a1.4 1.4 0 0 0-1 .5 4.8 4.8 0 0 0-.9 1.1l-.8 1.3a3 3 0 0 1-.9 1 3.2 3.2 0 0 1-.6-1.6 7.6 7.6 0 0 1-.1-1.6 9.2 9.2 0 0 1 .4-2.9l.9-2.8c.3-.9.6-1.5.9-2.5a15.9 15.9 0 0 0 .4-2.8h-4.8c0-1.6.2-1.7.6-2.3a6.1 6.1 0 0 1 1.6-1.6 10.2 10.2 0 0 1 2.1-.9l2.1-.3 3 .2 2.9.5 2.9.5 2.9.2h2.2a2.5 2.5 0 0 0-1.6-1.4l-2.5-.4-2.7-.2c-.9-.1-1.6.1-2.2-.2l-3.8-2.2h-.3a11.4 11.4 0 0 0-3.2 0 15.6 15.6 0 0 1-3.1.2 7.3 7.3 0 0 1-3-.7l-2.6-1.4-2.6-1.5a4.8 4.8 0 0 0-2.8-.6v5.9h1.6l.9-.3.9-.5.9-.7h.6v2.7l2-.7c0 .1.2.3.2.5a2 2 0 0 0 .1.5 5.6 5.6 0 0 1-1.3 3.9 23.1 23.1 0 0 1-3.2 2.9 21.3 21.3 0 0 0-4.6-1.3l-4.7-.7v-7.7l-1.7.5-2.1 1A14 14 0 0 0 70 148c-.5.4-1 .8-1 1.2v6.8a9.6 9.6 0 0 0 3-.3l1.8-.5 1.2-.6a2.7 2.7 0 0 1 1.2-.3h.4a4.5 4.5 0 0 0 .2.8c.2.3.3.8.5 1.2a6.5 6.5 0 0 1 .4 1.3 5.1 5.1 0 0 1 .2.9 6.5 6.5 0 0 1-.4 1.9 5.4 5.4 0 0 1-1.1 1.8 3.7 3.7 0 0 1-1.5 1.3 3.2 3.2 0 0 1-1.8.6H72l-2.9-.5-3.6-.7a14.2 14.2 0 0 1-3.3-1.2 2.6 2.6 0 0 1-1.4-2.1v-11.9l.9-.8 1.9-1.6 2.3-2.2a18.8 18.8 0 0 0 2.4-2.5 20.3 20.3 0 0 0 1.8-2.6 6.8 6.8 0 0 0 .7-2.6 3.7 3.7 0 0 0-1.2-2.7 10.5 10.5 0 0 0-2.7-2 15.6 15.6 0 0 0-3.3-1.4l-2.5-.9-1.3-9a13.1 13.1 0 0 0-.6-2.7 9.6 9.6 0 0 0-1.1-2.8 6.8 6.8 0 0 0-1.7-2.1 4.1 4.1 0 0 0-2.7-.8 12.8 12.8 0 0 0-3.6.4 15 15 0 0 0-3.2 1.5l-1.6 1-2.5 1.5-2.9 1.7-3 1.8-2.5 1.6c-.8.4-1.3 1.1-1.6 1.1h-1l-1.7-.2-2.1-.4a3.1 3.1 0 0 1-1.4-.7c-.4-.3-.3-.8-.3-1.4v-1.8c0-.6-.2-1 0-1h1.6a.5.5 0 0 1 0-.4 2.2 2.2 0 0 0 .1-.8 2.9 2.9 0 0 0 .2-.9.4.4 0 0 0 0-.5l-.7-.8-.9-.5-.7-.6a2.3 2.3 0 0 1-.3-1.3 2.6 2.6 0 0 1 .3-1.1 3.4 3.4 0 0 1 .6-1.2c.3-.3.3-.6.6-.9l.8-.3v.8c0 .5.5 1 .6 1.4a1.2 1.2 0 0 0 1.2.8 1.8 1.8 0 0 0 1.1-.5 4.8 4.8 0 0 0 .9-1.1c.3-.5.5-1.2.7-1.6s.2.2.2-1.4H20.5a2.1 2.1 0 0 1-.9-.5l-1-.7-.9-.7a1.5 1.5 0 0 1-.4-1.1 4.5 4.5 0 0 1 1.1-3.1 6.1 6.1 0 0 1 2.6-1.8 16 16 0 0 1 3.1-1 13.6 13.6 0 0 0 2.8-.8l2.2-.9 3.4-1.6 3.3-1.5a7 7 0 0 1 2.1-1.1h13.5a7.6 7.6 0 0 1 3.9 1 11.8 11.8 0 0 1 3 2.5 29.1 29.1 0 0 1 2.6 3.3l2.2 3.2a20.2 20.2 0 0 0 2.3 2.6 3.7 3.7 0 0 0 2.4 1 .9.9 0 0 0 .8-.4c.2-.3.4-.4.9-.4l1.5.3 1.5.7 1.5.7 1.5.3 4.1-.2 4.1-.5 4-.4a28.3 28.3 0 0 1 4.1-.3c2.5 0 4.9.2 7.2.4a38.9 38.9 0 0 1 7.2 1.6c1.6.6 3.3 1.2 5 2l5.1 2.1 5.1 1.8a25 25 0 0 0 5.4.7h2.6l12.7-2.6c4.3-.9 8.5-1.7 12.8-2.3s8.5-1.2 12.8-1.6 8.6-.5 13-.5h8.7a50.7 50.7 0 0 1 5 .9l36.1 7.2h11.6c-.8 0-1.8 1-3.1 1.4a26.1 26.1 0 0 1-4 .1z"/></symbol><symbol id="micropachycephalosaurus" viewBox="0 0 252 252"><path d="M130.8 148.6c-.3 0-.4.2-.4.6h-.1c-.3 0-.5.1-.5.5s.2.6.5.6.4-.2.4-.6h.1c.4 0 .5-.2.5-.5s-.1-.6-.5-.6zm1.5-.8a2.4 2.4 0 0 0-.9.8h.3a2.3 2.3 0 0 0 1.1-.3 2 2 0 0 0 .8-.8h-.3a1.9 1.9 0 0 0-1 .3zm3-2.5c-.3 0-.4.2-.4.5h-.2c-.2 0-.4.2-.4.6h-.1c-.3 0-.5.2-.5.6a.5.5 0 0 0 1 0c.4 0 .5-.2.5-.6h.1c.3 0 .5-.2.5-.6a.5.5 0 0 0-.5-.5zm23-5.8a8.9 8.9 0 0 1-1.3 1.4c.3.6.5.9.9 1a1.8 1.8 0 0 0 1.1.2 2.3 2.3 0 0 0 1.4-.4 5.8 5.8 0 0 0 1-1.2 10.9 10.9 0 0 0 .8-1.5c.2-.5.4-1.1.5-1.1h-3.4c-.2 0-.5 1-1 1.6z"/><path d="M126.3 1.8C56.7 1.8.3 57.4.3 126s56.4 124.2 126 124.2 126-55.6 126-124.2S195.9 1.8 126.3 1.8zm94.5 73.7l-1.5.4h-3.7l-5.2 1.2a20.4 20.4 0 0 0-3.6 1.6 10.3 10.3 0 0 0-2.5 2.1 15.8 15.8 0 0 0-1.7 2.9 37.7 37.7 0 0 0-1.5 3.8c-.5 1.4-1 3.1-1.6 4.9l-1.2 3.4c-.4 1-.8 2.1-1.3 3.1s-.9 2-1.4 3.1l-1.7 3.1a23.3 23.3 0 0 1-2.7 4l-2.9 3.6-3.1 3.5-3.1 3.7a10.5 10.5 0 0 0-1.3 2.6 18.6 18.6 0 0 1-1 2.5 7.1 7.1 0 0 1-1.3 2.2 5.9 5.9 0 0 1-2.5 1.5 8.5 8.5 0 0 1-1.3.6l-2 .6-2 .6-1.4.4a3 3 0 0 1 .2 2 2 2 0 0 1-.9.9l-1.2.6a2 2 0 0 0-.9.9l-2.2 6.6a3.1 3.1 0 0 1-1 1.5 9.8 9.8 0 0 1-1.8.8 12.3 12.3 0 0 1-2 .2 9.7 9.7 0 0 1-1.8-.1h-2a.8.8 0 0 1-.4-.8c0-.2.1-.3.1-.4l.3-.3.2-.2a.6.6 0 0 0 .1-.4v-.2a21.1 21.1 0 0 0-3.4 1.6l-3.4 2-3.3 2.1a29 29 0 0 1-3.3 2l-.9.4-1.1.6-1 .7a1.5 1.5 0 0 0-.4 1.1v.5l1.8 1.6 1.9 1.7 2 1.6 2.1 1.2a12.7 12.7 0 0 0 1.8.6l1.9.5 1.9.7a5.6 5.6 0 0 1 1.7.9 8 8 0 0 1 1.3 1.3l1.1 1.5a7.6 7.6 0 0 0 1.1 1.4 6.4 6.4 0 0 0 1.5 1.3l1.6.6 2.1.6a7.7 7.7 0 0 1 1.8 1 2.1 2.1 0 0 1 .7 1.7v.5l-5.6 1.1-1 .4-1.2.2h-.7a3.2 3.2 0 0 0-1.1-.6 9.5 9.5 0 0 0-1.7-1l-1.7-1-1-.8-.2-.2-.3-.4-.4-.6-.2-.4-2.2-4.4-1.2-.5-1.8-.7-2.1-.9-2.1-.9-1.8-.8-1.1-.6-2.7-1.6a10.9 10.9 0 0 1-2.6-2.1 10 10 0 0 1-2-2.6 8.4 8.4 0 0 1-1.1-3l-.5.2-.6.3-.9.6a8.3 8.3 0 0 1-1.7 1.2l-2.1 1.4-2.1 1.3-1.7 1-1 .6-5.9 3.4a22.2 22.2 0 0 0-4.5 3.4 16.8 16.8 0 0 0-3.6 4.3c-.9 1.7-.7 3.8-2.3 6.5v.6c-.1.1 0 .3 0 .5v.4a9.6 9.6 0 0 0 1.1 4.3 7.5 7.5 0 0 0 2.1 2.5 7.3 7.3 0 0 0 2.6 1.4l2.6 1a5.6 5.6 0 0 1 1.9.9 5.3 5.3 0 0 1 .8 2h-13.2l-.2-.4c-.1-.2-.2-.1-.3-.2h-.5l-.6-.4a2.8 2.8 0 0 1-1.3-1.5 6.5 6.5 0 0 1-.4-2.1 8.2 8.2 0 0 1 .2-2.2c0-.8.2-1.5.2-2v-1.5a8.6 8.6 0 0 1 .3-1.7c.2-.8.3-1.7.6-2.6s.4-2 .7-3.1.6-2.1.8-3.1.5-1.8.7-2.6l.4-1.7a9.3 9.3 0 0 1 .7-2 7.6 7.6 0 0 1 .9-1.8 14.7 14.7 0 0 0 4.5-2.5 19.9 19.9 0 0 0 3.2-3.3l2.9-3.3a16.6 16.6 0 0 1 3.4-3l1.4-.7 2.1-.8 2.3-.9 2.1-1.1 1.6-1.3a2.4 2.4 0 0 0 .6-1.5v-1.3c0-.5-.3-.8-.7-1.2l-.7-.3-1.2-.5-1.2-.6-.7-.3-2.1-1.2-2.6-1.8a23.6 23.6 0 0 0-2.5-1.5 3.4 3.4 0 0 0-1.7-.6h-7.8c-6 0-11.8-.1-17.6.1s-11.5.2-17.5.2c-4.3 0-8.6-.2-12.7-.4a98.5 98.5 0 0 1-12.3-1.4 82.5 82.5 0 0 1-11.9-2.9 64.7 64.7 0 0 1-11.7-4.9l-1.4-.7-1.6-1-1.3-1.2a3 3 0 0 1-.5-1.6 5.9 5.9 0 0 1 2.1.4l2.4.9 2.1 1 1.5.6 4.7 1.6 5 1.4 5 1 4.9.3h26.3l2.5-.3 3.3-.5 3.6-.6 3.4-.6 2.7-.6 6.8-1.3 7.3-1.6 7.2-2a43.6 43.6 0 0 0 6.6-2.8l3.8-1.7 3.7-1.6 3.9-1.3 4.2-.9h4.5l1.1-.2 1.9-.3 3.3-.8 4-.8 4-.9c1.3-.3 2.4-.9 3.3-1.1s1.6-.7 1.9-.7h6.5a64.6 64.6 0 0 1 7.8.7c2.6.2 5.2.5 7.8.5a10.1 10.1 0 0 0 5-1.3 15.7 15.7 0 0 0 4.5-3.4 25.9 25.9 0 0 0 3.8-4.8 63.2 63.2 0 0 0 3.3-6c.9-1.8 1.8-3.6 2.5-5.4s1.3-3.3 1.7-4.7.8-2.3 1.2-3.4l.9-3.1 1.2-2.5a8.6 8.6 0 0 1 1.8-2 9.3 9.3 0 0 1 2.6-1.5 12.7 12.7 0 0 1 3.8-.8h3c.8 1.6 1.8.9 3 1.3a36.8 36.8 0 0 1 3.5 1.5 11.9 11.9 0 0 1 2.9 1.8 2.5 2.5 0 0 1 1.3 2.1 2 2 0 0 1-.5 1.4 3.1 3.1 0 0 1-1.1.8z"/></symbol></svg>